# xmcd CD database file
#
# Track frame offsets:
#	150
#	20179
#	39150
#	58442
#	79590
#	98345
#	116524
#	133998
#	158556
#	181877
#	215632
#	241510
#	256092
#	282453
#	299260
#	327536
#
# Disc length: 4564 seconds
#
# Revision: 1
# Processed by: cddbd v1.5.1PL0 Copyright (c) Steve Scherf et al.
# Submitted via: CDex 1.51
#
DISCID=e211d210
DTITLE=Syaharani - Best Of
DYEAR=2004
DGENRE=Jazz
TTITLE0=You Light Up My Life
TTITLE1=Your Eyes
TTITLE2=Crazy
TTITLE3=Love
TTITLE4=For Sentimental Reason
TTITLE5=Kesan
TTITLE6=Autumn Leaves
TTITLE7=Sukma
TTITLE8=Selamanya
TTITLE9=Killing Me Softly
TTITLE10=Imagine
TTITLE11=Sendiri, Kuingin!
TTITLE12=Try No Tenderness
TTITLE13=Beneath
TTITLE14=Dia
TTITLE15=Make It With You
EXTD=YEAR: 2004
EXTT0=
EXTT1=
EXTT2=
EXTT3=
EXTT4=
EXTT5=
EXTT6=
EXTT7=
EXTT8=
EXTT9=
EXTT10=
EXTT11=
EXTT12=
EXTT13=
EXTT14=
EXTT15=
PLAYORDER=
